<svg width="28" height="12" viewBox="0 0 28 12" fill="none" xmlns="http://www.w3.org/2000/svg">
<path d="M3.62739 12C2.95818 12 2.35552 11.8669 1.8194 11.6008C1.28328 11.3346 0.853621 10.9696 0.530427 10.5057C0.207233 10.0418 0.0304266 9.51331 8.37638e-06 8.92015H1.36883C1.42206 9.44867 1.66161 9.88593 2.08746 10.2319C2.51712 10.5741 3.03043 10.7452 3.62739 10.7452C4.10647 10.7452 4.53233 10.6331 4.90495 10.4087C5.28138 10.1844 5.57605 9.87643 5.78898 9.48479C6.00571 9.08936 6.11408 8.64259 6.11408 8.14449C6.11408 7.63498 6.00191 7.18061 5.77758 6.78137C5.55704 6.37833 5.25286 6.06084 4.86503 5.8289C4.4772 5.59696 4.03423 5.47909 3.53613 5.47529C3.17872 5.47148 2.8118 5.52662 2.43537 5.64069C2.05894 5.75095 1.74906 5.89354 1.50571 6.06844L0.182518 5.90875L0.889742 0.159697H6.95818V1.41445H2.07605L1.66541 4.85932H1.73385C1.97339 4.6692 2.27377 4.51141 2.63499 4.38593C2.99621 4.26046 3.37263 4.19772 3.76427 4.19772C4.4791 4.19772 5.11598 4.36882 5.67491 4.71103C6.23765 5.04943 6.67872 5.51331 6.99811 6.10266C7.3213 6.69202 7.4829 7.36502 7.4829 8.12168C7.4829 8.86692 7.3156 9.53232 6.981 10.1179C6.6502 10.6996 6.19393 11.1597 5.61218 11.4981C5.03043 11.8327 4.36883 12 3.62739 12ZM13.3295 12C12.5462 12 11.8542 11.8612 11.2535 11.5837C10.6565 11.3023 10.1907 10.9164 9.85612 10.4259C9.52152 9.93156 9.35612 9.36882 9.35993 8.73764C9.35612 8.24335 9.45308 7.78707 9.6508 7.36882C9.84852 6.94677 10.1185 6.59506 10.4607 6.31369C10.8067 6.02852 11.1926 5.84791 11.6185 5.77187V5.70342C11.0595 5.55894 10.6147 5.24525 10.2839 4.76236C9.95308 4.27567 9.78958 3.72243 9.79339 3.10266C9.78958 2.50951 9.93977 1.97909 10.244 1.51141C10.5481 1.04373 10.9664 0.674906 11.4987 0.404944C12.0348 0.134982 12.6451 9.57301e-07 13.3295 9.57301e-07C14.0063 9.57301e-07 14.6109 0.134982 15.1432 0.404944C15.6755 0.674906 16.0938 1.04373 16.398 1.51141C16.7059 1.97909 16.8618 2.50951 16.8656 3.10266C16.8618 3.72243 16.6926 4.27567 16.358 4.76236C16.0272 5.24525 15.5881 5.55894 15.0405 5.70342V5.77187C15.4626 5.84791 15.8428 6.02852 16.1812 6.31369C16.5196 6.59506 16.7896 6.94677 16.9911 7.36882C17.1926 7.78707 17.2953 8.24335 17.2991 8.73764C17.2953 9.36882 17.1242 9.93156 16.7858 10.4259C16.4512 10.9164 15.9854 11.3023 15.3884 11.5837C14.7953 11.8612 14.109 12 13.3295 12ZM13.3295 10.7452C13.858 10.7452 14.3143 10.6597 14.6983 10.4886C15.0824 10.3175 15.3789 10.076 15.5881 9.76426C15.7972 9.45247 15.9037 9.08745 15.9075 8.6692C15.9037 8.22814 15.7896 7.83841 15.5653 7.5C15.3409 7.1616 15.0348 6.89544 14.647 6.70152C14.263 6.50761 13.8238 6.41065 13.3295 6.41065C12.8314 6.41065 12.3865 6.50761 11.9949 6.70152C11.6071 6.89544 11.301 7.1616 11.0767 7.5C10.8561 7.83841 10.7478 8.22814 10.7516 8.6692C10.7478 9.08745 10.8485 9.45247 11.0538 9.76426C11.263 10.076 11.5614 10.3175 11.9493 10.4886C12.3371 10.6597 12.7972 10.7452 13.3295 10.7452ZM13.3295 5.20152C13.7478 5.20152 14.1185 5.11787 14.4417 4.95057C14.7687 4.78327 15.0253 4.54943 15.2116 4.24905C15.398 3.94867 15.493 3.59696 15.4968 3.19392C15.493 2.79848 15.3999 2.45437 15.2173 2.1616C15.0348 1.86502 14.782 1.63688 14.4588 1.47719C14.1356 1.31369 13.7592 1.23194 13.3295 1.23194C12.8922 1.23194 12.5101 1.31369 12.1831 1.47719C11.8561 1.63688 11.6033 1.86502 11.4246 2.1616C11.2459 2.45437 11.1584 2.79848 11.1622 3.19392C11.1584 3.59696 11.2478 3.94867 11.4303 4.24905C11.6166 4.54943 11.8732 4.78327 12.2002 4.95057C12.5272 5.11787 12.9037 5.20152 13.3295 5.20152ZM23.1343 12C22.275 12 21.543 11.7662 20.9385 11.2985C20.3339 10.827 19.8719 10.1445 19.5525 9.25095C19.2332 8.35361 19.0735 7.26996 19.0735 6C19.0735 4.73764 19.2332 3.6597 19.5525 2.76616C19.8757 1.86882 20.3396 1.18441 20.9442 0.712929C21.5525 0.237643 22.2826 9.57301e-07 23.1343 9.57301e-07C23.986 9.57301e-07 24.7141 0.237643 25.3187 0.712929C25.9271 1.18441 26.3909 1.86882 26.7103 2.76616C27.0335 3.6597 27.1951 4.73764 27.1951 6C27.1951 7.26996 27.0354 8.35361 26.716 9.25095C26.3967 10.1445 25.9347 10.827 25.3301 11.2985C24.7255 11.7662 23.9936 12 23.1343 12ZM23.1343 10.7452C23.986 10.7452 24.6476 10.3346 25.1191 9.51331C25.5906 8.69202 25.8263 7.52091 25.8263 6C25.8263 4.9886 25.7179 4.12738 25.5012 3.41635C25.2883 2.70532 24.9803 2.1635 24.5773 1.79088C24.178 1.41825 23.697 1.23194 23.1343 1.23194C22.2902 1.23194 21.6305 1.64829 21.1552 2.48099C20.6799 3.30989 20.4423 4.48289 20.4423 6C20.4423 7.01141 20.5487 7.87072 20.7617 8.57795C20.9746 9.28517 21.2807 9.8232 21.6799 10.192C22.083 10.5608 22.5678 10.7452 23.1343 10.7452Z" fill="url(#paint0_linear_409_64)"/>
<defs>
<linearGradient id="paint0_linear_409_64" x1="-195.604" y1="11.8403" x2="-195.604" y2="440.464" gradientUnits="userSpaceOnUse">
<stop stop-color="#474444" stop-opacity="0.1"/>
<stop offset="0.289871" stop-color="#0F0F0F"/>
<stop offset="0.471154" stop-color="#101010"/>
</linearGradient>
</defs>
</svg>
